<?xml version="1.0" encoding="UTF-8" standalone="no"?>
<!-- Created with Inkscape (http://www.inkscape.org/) -->

<svg
   xmlns:dc="http://purl.org/dc/elements/1.1/"
   xmlns:cc="http://creativecommons.org/ns#"
   xmlns:rdf="http://www.w3.org/1999/02/22-rdf-syntax-ns#"
   xmlns:svg="http://www.w3.org/2000/svg"
   xmlns="http://www.w3.org/2000/svg"
   xmlns:xlink="http://www.w3.org/1999/xlink"
   xmlns:sodipodi="http://sodipodi.sourceforge.net/DTD/sodipodi-0.dtd"
   xmlns:inkscape="http://www.inkscape.org/namespaces/inkscape"
   width="100mm"
   height="100mm"
   viewBox="0 0 100 100"
   version="1.1"
   id="svg8"
   inkscape:version="0.92.2 5c3e80d, 2017-08-06"
   sodipodi:docname="spago-logo.svg"
   inkscape:export-filename="/Users/fabrizio/code/logo/logo.png"
   inkscape:export-xdpi="300.01932"
   inkscape:export-ydpi="300.01932">
  <defs
     id="defs2">
    <clipPath
       id="SVGID_2_-49-4">
      <use
         xlink:href="#SVGID_1_"
         overflow="visible"
         id="use4160-1-0"
         style="overflow:visible"
         x="0"
         y="0"
         width="100%"
         height="100%" />
    </clipPath>
    <clipPath
       id="clipPath6006">
      <use
         xlink:href="#SVGID_1_"
         overflow="visible"
         id="use6004"
         style="overflow:visible"
         x="0"
         y="0"
         width="100%"
         height="100%" />
    </clipPath>
    <clipPath
       id="clipPath6010">
      <use
         xlink:href="#SVGID_1_"
         overflow="visible"
         id="use6008"
         style="overflow:visible"
         x="0"
         y="0"
         width="100%"
         height="100%" />
    </clipPath>
    <clipPath
       id="clipPath6014">
      <use
         xlink:href="#SVGID_1_"
         overflow="visible"
         id="use6012"
         style="overflow:visible"
         x="0"
         y="0"
         width="100%"
         height="100%" />
    </clipPath>
    <clipPath
       id="clipPath6018">
      <use
         xlink:href="#SVGID_1_"
         overflow="visible"
         id="use6016"
         style="overflow:visible"
         x="0"
         y="0"
         width="100%"
         height="100%" />
    </clipPath>
    <rect
       height="907.827"
       width="821.326"
       y="0"
       id="SVGID_1_" />
  </defs>
  <sodipodi:namedview
     id="base"
     pagecolor="#ffffff"
     bordercolor="#666666"
     borderopacity="1.0"
     inkscape:pageopacity="0.0"
     inkscape:pageshadow="2"
     inkscape:zoom="0.76"
     inkscape:cx="170.41297"
     inkscape:cy="226.5309"
     inkscape:document-units="mm"
     inkscape:current-layer="layer2"
     showgrid="false"
     inkscape:snap-others="false"
     inkscape:snap-global="false"
     inkscape:window-width="1676"
     inkscape:window-height="1005"
     inkscape:window-x="0"
     inkscape:window-y="1"
     inkscape:window-maximized="1"
     showguides="true"
     inkscape:guide-bbox="true"
     inkscape:snap-bbox="true">
    <sodipodi:guide
       position="113.48405,125.054"
       orientation="1,0"
       id="guide5070"
       inkscape:locked="false" />
    <sodipodi:guide
       position="-11.569957,110.03768"
       orientation="1,0"
       id="guide5072"
       inkscape:locked="false" />
    <sodipodi:guide
       position="111.51469,136.13162"
       orientation="0,1"
       id="guide5074"
       inkscape:locked="false" />
  </sodipodi:namedview>
  <metadata
     id="metadata5">
    <rdf:RDF>
      <cc:Work
         rdf:about="">
        <dc:format>image/svg+xml</dc:format>
        <dc:type
           rdf:resource="http://purl.org/dc/dcmitype/StillImage" />
        <dc:title></dc:title>
      </cc:Work>
    </rdf:RDF>
  </metadata>
  <g
     inkscape:groupmode="layer"
     id="layer2"
     inkscape:label="Layer 2"
     style="display:inline">
    <g
       style="display:none"
       id="g7521-3-0"
       transform="matrix(-1.145048,-1.1618196,-1.1618196,1.145048,225.95262,80.471724)">
      <g
         id="g4608-4-4"
         transform="matrix(0.26458333,0,0,0.26458333,60.150087,13.932996)">
        <path
           style="fill:#263e64;fill-opacity:1;stroke-width:1.63124478"
           d="m 316.67773,54.144531 v 60.130859 c 2.40225,0.5418 5.21688,0.0961 6.65821,-1.34766 0.26894,-0.26857 0.74625,-0.2739 1.01367,-0.004 2.09441,2.11111 5.06793,2.11131 7.16406,0.002 0.29549,-0.29739 0.71273,-0.29589 1.00781,0.002 2.09326,2.11227 5.06989,2.11323 7.16602,0.004 0.29549,-0.29739 0.71273,-0.29589 1.00781,0.002 2.09326,2.11227 5.06794,2.11514 7.16407,0.006 0.26777,-0.26973 0.74709,-0.26516 1.01562,0.004 1.44022,1.44804 4.25893,1.89854 6.66406,1.35742 V 54.171875 Z"
           transform="matrix(-0.43031392,-0.43661676,-0.43661676,0.43031392,203.87924,146.88287)"
           id="path4292-06-5"
           inkscape:connector-curvature="0" />
        <rect
           x="45.953278"
           y="-39.095078"
           transform="matrix(0.71130461,0.70288388,-0.70939273,0.70481342,0,0)"
           style="fill:#f1b501;fill-opacity:1;stroke-width:1.34583783"
           width="2.0001922"
           height="30.086081"
           id="rect4294-0-7" />
        <rect
           x="37.546276"
           y="-40.276627"
           transform="matrix(0.69202276,0.72187569,-0.71493962,0.6991862,0,0)"
           style="fill:#ffdc3c;fill-opacity:1;stroke-width:1.37526512"
           width="2.0001001"
           height="30.086151"
           id="rect4296-40-1" />
        <rect
           x="48.705921"
           y="-41.178989"
           transform="matrix(0.70242955,0.71175327,-0.71201843,0.70216078,0,0)"
           style="fill:#fff05f;fill-opacity:1;stroke-width:1.22607505"
           width="1.999981"
           height="31.570261"
           id="rect4298-5-0" />
        <rect
           x="43.22509"
           y="-43.004551"
           transform="matrix(0.70303178,0.71115844,-0.71167737,0.70250645,0,0)"
           style="fill:#ffdc3c;fill-opacity:1;stroke-width:1.18022037"
           width="1.9999819"
           height="33.430389"
           id="rect4300-6-6" />
        <rect
           x="34.925705"
           y="-44.43327"
           transform="matrix(0.70258613,0.71159871,-0.71190415,0.70227664,0,0)"
           style="fill:#f1b501;fill-opacity:1;stroke-width:1.18022025"
           width="1.9999812"
           height="34.82333"
           id="rect4302-8-0" />
        <rect
           x="51.607723"
           y="-44.753967"
           transform="matrix(0.69809683,0.71600337,-0.71417677,0.69996539,0,0)"
           style="fill:#ffdc3c;fill-opacity:1;stroke-width:1.18022227"
           width="1.999995"
           height="34.821808"
           id="rect4304-5-3" />
        <rect
           x="40.443634"
           y="-43.033207"
           transform="matrix(0.70262257,0.71156273,-0.71188561,0.70229544,0,0)"
           style="fill:#fff05f;fill-opacity:1;stroke-width:1.18022025"
           width="1.9999813"
           height="33.430393"
           id="rect4306-3-3" />
        <rect
           x="29.850626"
           y="-41.612759"
           transform="matrix(0.70356224,0.71063365,-0.71140715,0.7027801,0,0)"
           style="fill:#f1b501;fill-opacity:1;stroke-width:1.18022072"
           width="1.9999833"
           height="32.037441"
           id="rect4308-7-5" />
        <rect
           x="32.351841"
           y="-43.597435"
           transform="matrix(0.70211138,0.71206713,-0.71217193,0.70200509,0,0)"
           style="fill:#fff05f;fill-opacity:1;stroke-width:1.29835176"
           width="1.9999925"
           height="33.962276"
           id="rect4310-6-0" />
        <ellipse
           ry="10.316133"
           rx="5.3254466"
           transform="matrix(-0.70194736,-0.71222883,-0.71222883,0.70194736,0,0)"
           cy="6.8171639"
           cx="-41.391338"
           id="ellipse5060"
           style="opacity:1;fill:#ffffff;fill-opacity:1;stroke:#14161a;stroke-width:0.44354257;stroke-miterlimit:4;stroke-dasharray:none;stroke-opacity:0" />
        <ellipse
           style="opacity:1;fill:#c6121d;fill-opacity:1;stroke:#14161a;stroke-width:0.36312017;stroke-miterlimit:4;stroke-dasharray:none;stroke-opacity:0"
           id="ellipse5066"
           cx="-41.324368"
           cy="5.2364306"
           transform="matrix(-0.70194736,-0.71222883,-0.71222883,0.70194736,0,0)"
           rx="4.3754277"
           ry="8.4155483" />
      </g>
    </g>
    <g
       style="display:inline"
       id="g5242"
       transform="matrix(-2.0570423,-1.3341324,-1.3341324,2.0570423,191.94658,85.057204)">
      <g
         id="g5240"
         transform="matrix(0.26458333,0,0,0.26458333,60.150087,13.932996)">
        <path
           style="fill:#263e64;fill-opacity:1;stroke-width:1.63124478"
           d="m 316.67773,54.144531 v 60.130859 c 2.40225,0.5418 5.21688,0.0961 6.65821,-1.34766 0.26894,-0.26857 0.74625,-0.2739 1.01367,-0.004 2.09441,2.11111 5.06793,2.11131 7.16406,0.002 0.29549,-0.29739 0.71273,-0.29589 1.00781,0.002 2.09326,2.11227 5.06989,2.11323 7.16602,0.004 0.29549,-0.29739 0.71273,-0.29589 1.00781,0.002 2.09326,2.11227 5.06794,2.11514 7.16407,0.006 0.26777,-0.26973 0.74709,-0.26516 1.01562,0.004 1.44022,1.44804 4.25893,1.89854 6.66406,1.35742 V 54.171875 Z"
           transform="matrix(-0.43031392,-0.43661676,-0.43661676,0.43031392,203.87924,146.88287)"
           id="path5216"
           inkscape:connector-curvature="0" />
        <rect
           x="45.953278"
           y="-39.095078"
           transform="matrix(0.71130461,0.70288388,-0.70939273,0.70481342,0,0)"
           style="fill:#f1b501;fill-opacity:1;stroke-width:1.34583783"
           width="2.0001922"
           height="30.086081"
           id="rect5218" />
        <rect
           x="37.546276"
           y="-40.276627"
           transform="matrix(0.69202276,0.72187569,-0.71493962,0.6991862,0,0)"
           style="fill:#ffdc3c;fill-opacity:1;stroke-width:1.37526512"
           width="2.0001001"
           height="30.086151"
           id="rect5220" />
        <rect
           x="48.705921"
           y="-41.178989"
           transform="matrix(0.70242955,0.71175327,-0.71201843,0.70216078,0,0)"
           style="fill:#fff05f;fill-opacity:1;stroke-width:1.22607505"
           width="1.999981"
           height="31.570261"
           id="rect5222" />
        <rect
           x="43.22509"
           y="-43.004551"
           transform="matrix(0.70303178,0.71115844,-0.71167737,0.70250645,0,0)"
           style="fill:#ffdc3c;fill-opacity:1;stroke-width:1.18022037"
           width="1.9999819"
           height="33.430389"
           id="rect5224" />
        <rect
           x="34.925705"
           y="-44.43327"
           transform="matrix(0.70258613,0.71159871,-0.71190415,0.70227664,0,0)"
           style="fill:#f1b501;fill-opacity:1;stroke-width:1.18022025"
           width="1.9999812"
           height="34.82333"
           id="rect5226" />
        <rect
           x="51.607723"
           y="-44.753967"
           transform="matrix(0.69809683,0.71600337,-0.71417677,0.69996539,0,0)"
           style="fill:#ffdc3c;fill-opacity:1;stroke-width:1.18022227"
           width="1.999995"
           height="34.821808"
           id="rect5228" />
        <rect
           x="40.443634"
           y="-43.033207"
           transform="matrix(0.70262257,0.71156273,-0.71188561,0.70229544,0,0)"
           style="fill:#fff05f;fill-opacity:1;stroke-width:1.18022025"
           width="1.9999813"
           height="33.430393"
           id="rect5230" />
        <rect
           x="29.850626"
           y="-41.612759"
           transform="matrix(0.70356224,0.71063365,-0.71140715,0.7027801,0,0)"
           style="fill:#f1b501;fill-opacity:1;stroke-width:1.18022072"
           width="1.9999833"
           height="32.037441"
           id="rect5232" />
        <rect
           x="32.351841"
           y="-43.597435"
           transform="matrix(0.70211138,0.71206713,-0.71217193,0.70200509,0,0)"
           style="fill:#fff05f;fill-opacity:1;stroke-width:1.29835176"
           width="1.9999925"
           height="33.962276"
           id="rect5234" />
        <ellipse
           ry="10.316133"
           rx="5.3254466"
           transform="matrix(-0.70194736,-0.71222883,-0.71222883,0.70194736,0,0)"
           cy="6.8171639"
           cx="-41.391338"
           id="ellipse5236"
           style="opacity:1;fill:#ffffff;fill-opacity:1;stroke:#14161a;stroke-width:0.44354257;stroke-miterlimit:4;stroke-dasharray:none;stroke-opacity:0" />
        <ellipse
           style="opacity:1;fill:#c6121d;fill-opacity:1;stroke:#14161a;stroke-width:0.36312017;stroke-miterlimit:4;stroke-dasharray:none;stroke-opacity:0"
           id="ellipse5238"
           cx="-41.324368"
           cy="5.2364306"
           transform="matrix(-0.70194736,-0.71222883,-0.71222883,0.70194736,0,0)"
           rx="4.3754277"
           ry="8.4155483" />
      </g>
    </g>
    <g
       transform="matrix(-1.8102039,-1.6536306,-1.6536306,1.8102039,199.70008,106.36814)"
       id="g5438"
       style="display:inline">
      <g
         transform="matrix(0.26458333,0,0,0.26458333,60.150087,13.932996)"
         id="g5436">
        <path
           inkscape:connector-curvature="0"
           id="path5412"
           transform="matrix(-0.43031392,-0.43661676,-0.43661676,0.43031392,203.87924,146.88287)"
           d="m 316.67773,54.144531 v 60.130859 c 2.40225,0.5418 5.21688,0.0961 6.65821,-1.34766 0.26894,-0.26857 0.74625,-0.2739 1.01367,-0.004 2.09441,2.11111 5.06793,2.11131 7.16406,0.002 0.29549,-0.29739 0.71273,-0.29589 1.00781,0.002 2.09326,2.11227 5.06989,2.11323 7.16602,0.004 0.29549,-0.29739 0.71273,-0.29589 1.00781,0.002 2.09326,2.11227 5.06794,2.11514 7.16407,0.006 0.26777,-0.26973 0.74709,-0.26516 1.01562,0.004 1.44022,1.44804 4.25893,1.89854 6.66406,1.35742 V 54.171875 Z"
           style="fill:#263e64;fill-opacity:1;stroke-width:1.63124478" />
        <rect
           id="rect5414"
           height="30.086081"
           width="2.0001922"
           style="fill:#f1b501;fill-opacity:1;stroke-width:1.34583783"
           transform="matrix(0.71130461,0.70288388,-0.70939273,0.70481342,0,0)"
           y="-39.095078"
           x="45.953278" />
        <rect
           id="rect5416"
           height="30.086151"
           width="2.0001001"
           style="fill:#ffdc3c;fill-opacity:1;stroke-width:1.37526512"
           transform="matrix(0.69202276,0.72187569,-0.71493962,0.6991862,0,0)"
           y="-40.276627"
           x="37.546276" />
        <rect
           id="rect5418"
           height="31.570261"
           width="1.999981"
           style="fill:#fff05f;fill-opacity:1;stroke-width:1.22607505"
           transform="matrix(0.70242955,0.71175327,-0.71201843,0.70216078,0,0)"
           y="-41.178989"
           x="48.705921" />
        <rect
           id="rect5420"
           height="33.430389"
           width="1.9999819"
           style="fill:#ffdc3c;fill-opacity:1;stroke-width:1.18022037"
           transform="matrix(0.70303178,0.71115844,-0.71167737,0.70250645,0,0)"
           y="-43.004551"
           x="43.22509" />
        <rect
           id="rect5422"
           height="34.82333"
           width="1.9999812"
           style="fill:#f1b501;fill-opacity:1;stroke-width:1.18022025"
           transform="matrix(0.70258613,0.71159871,-0.71190415,0.70227664,0,0)"
           y="-44.43327"
           x="34.925705" />
        <rect
           id="rect5424"
           height="34.821808"
           width="1.999995"
           style="fill:#ffdc3c;fill-opacity:1;stroke-width:1.18022227"
           transform="matrix(0.69809683,0.71600337,-0.71417677,0.69996539,0,0)"
           y="-44.753967"
           x="51.607723" />
        <rect
           id="rect5426"
           height="33.430393"
           width="1.9999813"
           style="fill:#fff05f;fill-opacity:1;stroke-width:1.18022025"
           transform="matrix(0.70262257,0.71156273,-0.71188561,0.70229544,0,0)"
           y="-43.033207"
           x="40.443634" />
        <rect
           id="rect5428"
           height="32.037441"
           width="1.9999833"
           style="fill:#f1b501;fill-opacity:1;stroke-width:1.18022072"
           transform="matrix(0.70356224,0.71063365,-0.71140715,0.7027801,0,0)"
           y="-41.612759"
           x="29.850626" />
        <rect
           id="rect5430"
           height="33.962276"
           width="1.9999925"
           style="fill:#fff05f;fill-opacity:1;stroke-width:1.29835176"
           transform="matrix(0.70211138,0.71206713,-0.71217193,0.70200509,0,0)"
           y="-43.597435"
           x="32.351841" />
        <ellipse
           style="opacity:1;fill:#ffffff;fill-opacity:1;stroke:#14161a;stroke-width:0.44354257;stroke-miterlimit:4;stroke-dasharray:none;stroke-opacity:0"
           id="ellipse5432"
           cx="-41.391338"
           cy="6.8171639"
           transform="matrix(-0.70194736,-0.71222883,-0.71222883,0.70194736,0,0)"
           rx="5.3254466"
           ry="10.316133" />
        <ellipse
           ry="8.4155483"
           rx="4.3754277"
           transform="matrix(-0.70194736,-0.71222883,-0.71222883,0.70194736,0,0)"
           cy="5.2364306"
           cx="-41.324368"
           id="ellipse5434"
           style="opacity:1;fill:#c6121d;fill-opacity:1;stroke:#14161a;stroke-width:0.36312017;stroke-miterlimit:4;stroke-dasharray:none;stroke-opacity:0" />
      </g>
    </g>
    <g
       style="display:inline"
       id="g5466"
       transform="matrix(1.8102039,-1.6536306,1.6536306,1.8102039,-100.22459,108.42561)">
      <g
         id="g5464"
         transform="matrix(0.26458333,0,0,0.26458333,60.150087,13.932996)">
        <path
           style="fill:#263e64;fill-opacity:1;stroke-width:1.63124478"
           d="m 316.67773,54.144531 v 60.130859 c 2.40225,0.5418 5.21688,0.0961 6.65821,-1.34766 0.26894,-0.26857 0.74625,-0.2739 1.01367,-0.004 2.09441,2.11111 5.06793,2.11131 7.16406,0.002 0.29549,-0.29739 0.71273,-0.29589 1.00781,0.002 2.09326,2.11227 5.06989,2.11323 7.16602,0.004 0.29549,-0.29739 0.71273,-0.29589 1.00781,0.002 2.09326,2.11227 5.06794,2.11514 7.16407,0.006 0.26777,-0.26973 0.74709,-0.26516 1.01562,0.004 1.44022,1.44804 4.25893,1.89854 6.66406,1.35742 V 54.171875 Z"
           transform="matrix(-0.43031392,-0.43661676,-0.43661676,0.43031392,203.87924,146.88287)"
           id="path5440"
           inkscape:connector-curvature="0" />
        <rect
           x="45.953278"
           y="-39.095078"
           transform="matrix(0.71130461,0.70288388,-0.70939273,0.70481342,0,0)"
           style="fill:#f1b501;fill-opacity:1;stroke-width:1.34583783"
           width="2.0001922"
           height="30.086081"
           id="rect5442" />
        <rect
           x="37.546276"
           y="-40.276627"
           transform="matrix(0.69202276,0.72187569,-0.71493962,0.6991862,0,0)"
           style="fill:#ffdc3c;fill-opacity:1;stroke-width:1.37526512"
           width="2.0001001"
           height="30.086151"
           id="rect5444" />
        <rect
           x="48.705921"
           y="-41.178989"
           transform="matrix(0.70242955,0.71175327,-0.71201843,0.70216078,0,0)"
           style="fill:#fff05f;fill-opacity:1;stroke-width:1.22607505"
           width="1.999981"
           height="31.570261"
           id="rect5446" />
        <rect
           x="43.22509"
           y="-43.004551"
           transform="matrix(0.70303178,0.71115844,-0.71167737,0.70250645,0,0)"
           style="fill:#ffdc3c;fill-opacity:1;stroke-width:1.18022037"
           width="1.9999819"
           height="33.430389"
           id="rect5448" />
        <rect
           x="34.925705"
           y="-44.43327"
           transform="matrix(0.70258613,0.71159871,-0.71190415,0.70227664,0,0)"
           style="fill:#f1b501;fill-opacity:1;stroke-width:1.18022025"
           width="1.9999812"
           height="34.82333"
           id="rect5450" />
        <rect
           x="51.607723"
           y="-44.753967"
           transform="matrix(0.69809683,0.71600337,-0.71417677,0.69996539,0,0)"
           style="fill:#ffdc3c;fill-opacity:1;stroke-width:1.18022227"
           width="1.999995"
           height="34.821808"
           id="rect5452" />
        <rect
           x="40.443634"
           y="-43.033207"
           transform="matrix(0.70262257,0.71156273,-0.71188561,0.70229544,0,0)"
           style="fill:#fff05f;fill-opacity:1;stroke-width:1.18022025"
           width="1.9999813"
           height="33.430393"
           id="rect5454" />
        <rect
           x="29.850626"
           y="-41.612759"
           transform="matrix(0.70356224,0.71063365,-0.71140715,0.7027801,0,0)"
           style="fill:#f1b501;fill-opacity:1;stroke-width:1.18022072"
           width="1.9999833"
           height="32.037441"
           id="rect5456" />
        <rect
           x="32.351841"
           y="-43.597435"
           transform="matrix(0.70211138,0.71206713,-0.71217193,0.70200509,0,0)"
           style="fill:#fff05f;fill-opacity:1;stroke-width:1.29835176"
           width="1.9999925"
           height="33.962276"
           id="rect5458" />
        <ellipse
           ry="10.316133"
           rx="5.3254466"
           transform="matrix(-0.70194736,-0.71222883,-0.71222883,0.70194736,0,0)"
           cy="6.8171639"
           cx="-41.391338"
           id="ellipse5460"
           style="opacity:1;fill:#ffffff;fill-opacity:1;stroke:#14161a;stroke-width:0.44354257;stroke-miterlimit:4;stroke-dasharray:none;stroke-opacity:0" />
        <ellipse
           style="opacity:1;fill:#c6121d;fill-opacity:1;stroke:#14161a;stroke-width:0.36312017;stroke-miterlimit:4;stroke-dasharray:none;stroke-opacity:0"
           id="ellipse5462"
           cx="-41.324368"
           cy="5.2364306"
           transform="matrix(-0.70194736,-0.71222883,-0.71222883,0.70194736,0,0)"
           rx="4.3754277"
           ry="8.4155483" />
      </g>
    </g>
    <g
       transform="matrix(2.0609934,-1.3280207,1.3280207,2.0609934,-93.072456,87.257727)"
       id="g5494"
       style="display:inline">
      <g
         transform="matrix(0.26458333,0,0,0.26458333,60.150087,13.932996)"
         id="g5492">
        <path
           inkscape:connector-curvature="0"
           id="path5468"
           transform="matrix(-0.43031392,-0.43661676,-0.43661676,0.43031392,203.87924,146.88287)"
           d="m 316.67773,54.144531 v 60.130859 c 2.40225,0.5418 5.21688,0.0961 6.65821,-1.34766 0.26894,-0.26857 0.74625,-0.2739 1.01367,-0.004 2.09441,2.11111 5.06793,2.11131 7.16406,0.002 0.29549,-0.29739 0.71273,-0.29589 1.00781,0.002 2.09326,2.11227 5.06989,2.11323 7.16602,0.004 0.29549,-0.29739 0.71273,-0.29589 1.00781,0.002 2.09326,2.11227 5.06794,2.11514 7.16407,0.006 0.26777,-0.26973 0.74709,-0.26516 1.01562,0.004 1.44022,1.44804 4.25893,1.89854 6.66406,1.35742 V 54.171875 Z"
           style="fill:#263e64;fill-opacity:1;stroke-width:1.63124478" />
        <rect
           id="rect5470"
           height="30.086081"
           width="2.0001922"
           style="fill:#f1b501;fill-opacity:1;stroke-width:1.34583783"
           transform="matrix(0.71130461,0.70288388,-0.70939273,0.70481342,0,0)"
           y="-39.095078"
           x="45.953278" />
        <rect
           id="rect5472"
           height="30.086151"
           width="2.0001001"
           style="fill:#ffdc3c;fill-opacity:1;stroke-width:1.37526512"
           transform="matrix(0.69202276,0.72187569,-0.71493962,0.6991862,0,0)"
           y="-40.276627"
           x="37.546276" />
        <rect
           id="rect5474"
           height="31.570261"
           width="1.999981"
           style="fill:#fff05f;fill-opacity:1;stroke-width:1.22607505"
           transform="matrix(0.70242955,0.71175327,-0.71201843,0.70216078,0,0)"
           y="-41.178989"
           x="48.705921" />
        <rect
           id="rect5476"
           height="33.430389"
           width="1.9999819"
           style="fill:#ffdc3c;fill-opacity:1;stroke-width:1.18022037"
           transform="matrix(0.70303178,0.71115844,-0.71167737,0.70250645,0,0)"
           y="-43.004551"
           x="43.22509" />
        <rect
           id="rect5478"
           height="34.82333"
           width="1.9999812"
           style="fill:#f1b501;fill-opacity:1;stroke-width:1.18022025"
           transform="matrix(0.70258613,0.71159871,-0.71190415,0.70227664,0,0)"
           y="-44.43327"
           x="34.925705" />
        <rect
           id="rect5480"
           height="34.821808"
           width="1.999995"
           style="fill:#ffdc3c;fill-opacity:1;stroke-width:1.18022227"
           transform="matrix(0.69809683,0.71600337,-0.71417677,0.69996539,0,0)"
           y="-44.753967"
           x="51.607723" />
        <rect
           id="rect5482"
           height="33.430393"
           width="1.9999813"
           style="fill:#fff05f;fill-opacity:1;stroke-width:1.18022025"
           transform="matrix(0.70262257,0.71156273,-0.71188561,0.70229544,0,0)"
           y="-43.033207"
           x="40.443634" />
        <rect
           id="rect5484"
           height="32.037441"
           width="1.9999833"
           style="fill:#f1b501;fill-opacity:1;stroke-width:1.18022072"
           transform="matrix(0.70356224,0.71063365,-0.71140715,0.7027801,0,0)"
           y="-41.612759"
           x="29.850626" />
        <rect
           id="rect5486"
           height="33.962276"
           width="1.9999925"
           style="fill:#fff05f;fill-opacity:1;stroke-width:1.29835176"
           transform="matrix(0.70211138,0.71206713,-0.71217193,0.70200509,0,0)"
           y="-43.597435"
           x="32.351841" />
        <ellipse
           style="opacity:1;fill:#ffffff;fill-opacity:1;stroke:#14161a;stroke-width:0.44354257;stroke-miterlimit:4;stroke-dasharray:none;stroke-opacity:0"
           id="ellipse5488"
           cx="-41.391338"
           cy="6.8171639"
           transform="matrix(-0.70194736,-0.71222883,-0.71222883,0.70194736,0,0)"
           rx="5.3254466"
           ry="10.316133" />
        <ellipse
           ry="8.4155483"
           rx="4.3754277"
           transform="matrix(-0.70194736,-0.71222883,-0.71222883,0.70194736,0,0)"
           cy="5.2364306"
           cx="-41.324368"
           id="ellipse5490"
           style="opacity:1;fill:#c6121d;fill-opacity:1;stroke:#14161a;stroke-width:0.36312017;stroke-miterlimit:4;stroke-dasharray:none;stroke-opacity:0" />
      </g>
    </g>
  </g>
  <g
     inkscape:label="Layer 1"
     inkscape:groupmode="layer"
     id="layer1"
     transform="translate(0,-197)"
     style="display:inline">
    <g
       id="g6652"
       transform="matrix(2.2909962,0,0,2.2909962,-70.491671,-351.83708)">
      <path
         style="fill:#f5c99d;stroke-width:0.74294287"
         d="m 189.0957,158.32422 -14.87109,136.67383 8.90234,56.48828 H 327.58984 V 232.21094 Z"
         transform="matrix(0.12114924,0,0,0.12114924,29.659706,238.62444)"
         id="polygon4898"
         inkscape:connector-curvature="0" />
      <path
         style="fill:#f3e5cb;stroke-width:0.74294287"
         d="M 189.0957,158.32422 50.601562,232.21094 V 351.48633 H 189.0957 Z"
         transform="matrix(0.12114924,0,0,0.12114924,29.659706,238.62444)"
         id="polygon4900"
         inkscape:connector-curvature="0" />
      <polygon
         id="polygon4902"
         points="204.109,300.486 256,201.034 69.587,201.034 17.696,300.486 "
         style="fill:#f5c99d"
         transform="matrix(0.09000696,0,0,0.09000696,29.526749,239.71074)" />
      <polygon
         id="polygon4904"
         points="442.413,201.034 256,201.034 307.891,300.486 494.304,300.486 "
         style="fill:#e6a160"
         transform="matrix(0.09000696,0,0,0.09000696,29.526749,239.71074)" />
    </g>
  </g>
  <g
     inkscape:groupmode="layer"
     id="layer3"
     inkscape:label="Layer 3"
     style="display:inline">
    <g
       id="g6466"
       transform="matrix(1.5156624,0,0,1.6973522,-6.9748769,38.467392)">
      <polygon
         transform="matrix(0.23862995,0,0,0.23862995,-46.791942,-113.05083)"
         style="fill:#14161a"
         id="polygon4189-5-0"
         points="310.22,581.982 281.838,581.982 288.302,588.017 316.683,588.017 "
         clip-path="url(#SVGID_2_-49-4)" />
      <polygon
         transform="matrix(0.23862995,0,0,0.23862995,-46.791942,-113.05083)"
         style="fill:#14161a"
         id="polygon4191-830-9"
         points="281.839,572.896 310.22,572.896 316.683,566.861 288.302,566.861 "
         clip-path="url(#SVGID_2_-49-4)" />
      <polygon
         transform="matrix(0.23862995,0,0,0.23862995,-46.791942,-113.05083)"
         style="fill:#14161a"
         id="polygon4193-6-3"
         points="310.22,551.736 281.841,551.736 288.302,557.773 316.681,557.773 "
         clip-path="url(#SVGID_2_-49-4)" />
      <path
         transform="matrix(0.23862995,0,0,0.23862995,-46.791942,-113.05083)"
         style="fill:#14161a"
         inkscape:connector-curvature="0"
         id="path4195-2-7"
         d="m 278.853,563.746 -4.27,-4.27 -15.83,15.828 c -0.568,0.568 -0.882,1.328 -0.88,2.135 0,0.807 0.312,1.564 0.88,2.133 l 15.83,15.83 4.27,-4.268 -13.695,-13.695 z"
         clip-path="url(#SVGID_2_-49-4)" />
      <path
         transform="matrix(0.23862995,0,0,0.23862995,-46.791942,-113.05083)"
         style="fill:#14161a"
         inkscape:connector-curvature="0"
         id="path4197-25-5"
         d="m 339.769,560.183 -15.824,-15.832 -4.268,4.269 13.688,13.696 -13.688,13.695 4.268,4.268 15.824,-15.826 c 0.57,-0.572 0.885,-1.332 0.885,-2.139 -0.003,-0.807 -0.316,-1.563 -0.885,-2.131"
         clip-path="url(#SVGID_2_-49-4)" />
    </g>
  </g>
</svg>
